<svg width="51" height="15" viewBox="0 0 51 15" fill="none" xmlns="http://www.w3.org/2000/svg">
<path d="M0.42 14V13.6L0.86 13.48C1.07333 13.4133 1.21333 13.32 1.28 13.2C1.34667 13.0667 1.38667 12.8933 1.4 12.68V8.72C1.4 8.28 1.4 7.90667 1.4 7.6C1.4 7.29333 1.39333 6.93333 1.38 6.52C1.38 6.29333 1.34667 6.12 1.28 6C1.21333 5.86667 1.06667 5.77333 0.84 5.72L0.42 5.62V5.26L3.66 4.1L3.9 4.32L4.04 5.66C4.50667 5.23333 5.02667 4.86667 5.6 4.56C6.17333 4.25333 6.76 4.1 7.36 4.1C8.02667 4.1 8.54667 4.23333 8.92 4.5C9.29333 4.76667 9.58 5.17333 9.78 5.72C10.2867 5.21333 10.8467 4.82 11.46 4.54C12.0733 4.24667 12.68 4.1 13.28 4.1C14.1867 4.1 14.8667 4.32667 15.32 4.78C15.7733 5.23333 16 5.94667 16 6.92V12.7C16 13.1267 16.1867 13.3933 16.56 13.5L16.94 13.6V14H12.44V13.6L12.8 13.5C13.16 13.38 13.34 13.1067 13.34 12.68V6.82C13.34 6.24667 13.2333 5.86 13.02 5.66C12.82 5.44667 12.4867 5.34 12.02 5.34C11.66 5.34 11.32 5.41333 11 5.56C10.68 5.70667 10.3267 5.93333 9.94 6.24C10.02 6.64 10.06 7.1 10.06 7.62V12.7C10.0733 12.9267 10.1133 13.1067 10.18 13.24C10.26 13.36 10.4067 13.4467 10.62 13.5L10.96 13.6V14H6.44V13.6L6.86 13.48C7.07333 13.4133 7.21333 13.32 7.28 13.2C7.36 13.0667 7.4 12.8933 7.4 12.68V6.84C7.4 6.29333 7.3 5.90667 7.1 5.68C6.9 5.45333 6.56 5.34 6.08 5.34C5.46667 5.34 4.80667 5.63333 4.1 6.22V12.7C4.1 13.14 4.28667 13.4067 4.66 13.5L5 13.6V14H0.42ZM43.9841 14.28C43.2241 14.28 42.5774 14.0667 42.0441 13.64C41.5241 13.2 41.2641 12.5733 41.2641 11.76C41.2641 11.12 41.5707 10.5333 42.1841 10C42.8107 9.45333 43.7907 9.05333 45.1241 8.8C45.3507 8.74667 45.6107 8.7 45.9041 8.66C46.2107 8.60667 46.5107 8.55333 46.8041 8.5V7.08C46.8041 6.17333 46.6907 5.54667 46.4641 5.2C46.2374 4.85333 45.8774 4.68 45.3841 4.68H45.3241C45.0174 4.68 44.7707 4.78 44.5841 4.98C44.4107 5.16667 44.2974 5.48 44.2441 5.92L44.1841 6.18C44.1441 6.71333 44.0041 7.10667 43.7641 7.36C43.5241 7.6 43.2241 7.72 42.8641 7.72C42.5307 7.72 42.2507 7.62 42.0241 7.42C41.8107 7.20667 41.7041 6.93333 41.7041 6.6C41.7041 6.05333 41.8907 5.59333 42.2641 5.22C42.6374 4.84667 43.1307 4.56667 43.7441 4.38C44.3707 4.19333 45.0441 4.1 45.7641 4.1C46.9507 4.1 47.8574 4.38667 48.4841 4.96C49.1107 5.53333 49.4241 6.46667 49.4241 7.76V12.22C49.4241 12.7933 49.6974 13.08 50.2441 13.08H50.7041L50.9041 13.3C50.6641 13.6067 50.3974 13.84 50.1041 14C49.8107 14.1733 49.4107 14.26 48.9041 14.26C48.3307 14.26 47.8707 14.1267 47.5241 13.86C47.1907 13.58 46.9707 13.2133 46.8641 12.76C46.4374 13.2133 46.0174 13.58 45.6041 13.86C45.1907 14.14 44.6507 14.28 43.9841 14.28ZM45.1441 13C45.4107 13 45.6641 12.94 45.9041 12.82C46.1441 12.7 46.4441 12.5 46.8041 12.22V9.02C46.4574 9.07333 46.1041 9.14 45.7441 9.22C45.1707 9.35333 44.7041 9.6 44.3441 9.96C43.9974 10.32 43.8241 10.8067 43.8241 11.42C43.8241 11.9533 43.9441 12.3533 44.1841 12.62C44.4374 12.8733 44.7574 13 45.1441 13Z" fill="black"/>
<path d="M23.8438 4.92V5.06L24.0638 4H26.9438L25.5038 10.8C25.4771 10.92 25.4571 11.0333 25.4438 11.14C25.4304 11.2333 25.4238 11.3333 25.4238 11.44C25.4238 11.7333 25.4904 11.9533 25.6238 12.1C25.7571 12.2333 25.9638 12.3 26.2438 12.3C26.5904 12.3 26.9038 12.14 27.1838 11.82C27.4638 11.4867 27.6904 11.02 27.8638 10.42H28.7038C28.2771 11.6467 27.7238 12.5733 27.0438 13.2C26.3638 13.8133 25.5771 14.12 24.6838 14.12C24.1104 14.12 23.6504 13.96 23.3038 13.64C22.9704 13.32 22.7771 12.8667 22.7238 12.28C22.3104 12.8933 21.8504 13.3533 21.3438 13.66C20.8504 13.9667 20.3171 14.12 19.7438 14.12C18.9171 14.12 18.2638 13.84 17.7838 13.28C17.3171 12.72 17.0837 11.9267 17.0837 10.9C17.0837 10.1533 17.1971 9.37333 17.4238 8.56C17.6504 7.74667 17.9638 7.00667 18.3638 6.34C18.8571 5.55333 19.4304 4.95333 20.0838 4.54C20.7371 4.11333 21.4504 3.9 22.2238 3.9C22.7438 3.9 23.1438 3.99333 23.4238 4.18C23.7038 4.35333 23.8438 4.6 23.8438 4.92ZM23.6638 5.9C23.6638 5.7 23.5904 5.52667 23.4438 5.38C23.2971 5.22 23.0971 5.14 22.8438 5.14C22.1104 5.14 21.4571 5.75333 20.8838 6.98C20.3238 8.20667 20.0438 9.42 20.0438 10.62C20.0438 11.14 20.1171 11.5333 20.2638 11.8C20.4104 12.0533 20.6704 12.18 21.0438 12.18C21.3904 12.18 21.7238 12.0133 22.0438 11.68C22.3771 11.3467 22.5971 10.9267 22.7038 10.42L23.6638 5.9ZM29.9325 14H27.0525L29.1725 4H32.0525L31.7925 5.24C32.3792 4.74667 32.8392 4.42 33.1725 4.26C33.5192 4.08667 33.8658 4 34.2125 4C34.6258 4 34.9592 4.14667 35.2125 4.44C35.4658 4.72 35.5925 5.07333 35.5925 5.5C35.5925 5.91333 35.4592 6.26 35.1925 6.54C34.9258 6.82 34.5792 6.96 34.1525 6.96C33.9258 6.96 33.7458 6.90667 33.6125 6.8C33.4925 6.69333 33.4058 6.47333 33.3525 6.14C33.3125 5.92667 33.2658 5.79333 33.2125 5.74C33.1592 5.67333 33.0858 5.64 32.9925 5.64C32.7658 5.64 32.5525 5.68667 32.3525 5.78C32.1525 5.87333 31.8792 6.08 31.5325 6.4L29.9325 14ZM36.032 4H36.692L37.292 1.24L40.252 0.839999L39.572 4H40.772L40.612 4.8H39.412L38.132 10.8C38.1054 10.92 38.0854 11.0333 38.072 11.14C38.0587 11.2333 38.052 11.3333 38.052 11.44C38.052 11.7067 38.112 11.9 38.232 12.02C38.3654 12.1267 38.5787 12.18 38.872 12.18C39.2454 12.18 39.5987 12.02 39.932 11.7C40.2654 11.3667 40.512 10.94 40.672 10.42H41.512C41.0854 11.6333 40.512 12.5533 39.792 13.18C39.072 13.8067 38.2454 14.12 37.312 14.12C36.6454 14.12 36.1187 13.9133 35.732 13.5C35.3587 13.0733 35.172 12.48 35.172 11.72C35.172 11.5467 35.1854 11.3533 35.212 11.14C35.2387 10.9133 35.2787 10.6733 35.332 10.42L36.532 4.8H35.872L36.032 4Z" fill="#CEBEA6"/>
</svg>
